<svg width="20" height="13" viewBox="0 0 20 13" fill="none" xmlns="http://www.w3.org/2000/svg">
<path d="M20 6.45343C19.9994 6.28222 19.9264 6.11919 19.7988 6.00495L13.4351 0.291615C13.3194 0.187675 13.1748 0.136463 13.0303 0.136463C12.8642 0.136463 12.6988 0.204343 12.5791 0.337676C12.3555 0.586464 12.3761 0.969796 12.6251 1.19343L17.8609 5.89404H4.24242C2.57152 5.89404 1.21212 4.53464 1.21212 2.86374V1.95464C1.21212 1.6201 0.940607 1.34858 0.606062 1.34858C0.271515 1.34858 0 1.6201 0 1.95464V2.86374C0 5.20313 1.90303 7.10616 4.24242 7.10616H17.7812L12.6221 11.8098C12.3748 12.0352 12.357 12.4186 12.5827 12.6662C12.8082 12.9134 13.1912 12.931 13.4391 12.7056L19.8027 6.90373C19.9288 6.78828 20.0006 6.62495 20 6.45343Z" fill="white"/>
</svg>
