<svg width="96" height="95" viewBox="0 0 96 95" fill="none" xmlns="http://www.w3.org/2000/svg">
<rect x="0.792969" width="95" height="95" rx="47.5" fill="#FFDDDD"/>
<rect x="10.793" y="10" width="75" height="75" rx="37.5" fill="#FFCECF"/>
<path d="M68.793 55.4983V58.0523C68.7918 58.308 68.6897 58.5529 68.5089 58.7337C68.3281 58.9145 68.0832 59.0166 67.8274 59.0178H66.5683C66.3122 59.0178 66.0666 58.9161 65.8856 58.735C65.7045 58.5539 65.6028 58.3083 65.6028 58.0523V55.4983C65.6031 55.1924 65.6908 54.893 65.8556 54.6353C66.0203 54.3775 66.2552 54.1722 66.5327 54.0434V46.5996L67.8675 46.1101V54.0434C68.1445 54.1724 68.3787 54.3779 68.5427 54.6357C68.7067 54.8935 68.7935 55.1928 68.793 55.4983ZM47.1912 52.6062L35.3247 48.2903V53.8209C35.3187 54.2592 35.4148 54.6929 35.6056 55.0876C35.7964 55.4822 36.0765 55.827 36.4237 56.0945C43.9877 62.0834 53.2913 62.0834 60.8642 56.0945C61.2114 55.827 61.4915 55.4822 61.6823 55.0876C61.8731 54.6929 61.9692 54.2592 61.9632 53.8209V48.2903L50.1056 52.6062C49.1663 52.96 48.1305 52.96 47.1912 52.6062ZM49.6606 51.3515L65.6784 45.505L48.6017 44.4327C48.4258 44.4201 48.2619 44.3389 48.1454 44.2066C48.0288 44.0742 47.969 43.9013 47.9788 43.7253C47.9839 43.6378 48.0063 43.5521 48.0447 43.4733C48.0831 43.3945 48.1367 43.3241 48.2025 43.2662C48.2683 43.2082 48.3449 43.1639 48.428 43.1358C48.511 43.1077 48.5988 43.0963 48.6862 43.1024L67.2357 44.2859C67.3657 44.2951 67.4901 44.3421 67.5937 44.4211C67.6973 44.5002 67.7754 44.6079 67.8186 44.7308C68.0276 44.6854 68.2158 44.572 68.3537 44.4085C68.4917 44.245 68.5717 44.0405 68.5814 43.8267C68.591 43.613 68.5297 43.4021 68.4071 43.2268C68.2844 43.0516 68.1072 42.9218 67.9031 42.8576L49.6606 36.1836C49.0203 35.9388 48.3121 35.9388 47.6718 36.1836L29.4293 42.8576C29.2429 42.9253 29.0818 43.0487 28.9679 43.2111C28.854 43.3735 28.793 43.567 28.793 43.7653C28.793 43.9636 28.854 44.1572 28.9679 44.3196C29.0818 44.482 29.2429 44.6054 29.4293 44.673L47.694 51.347C48.3272 51.5876 49.0264 51.5892 49.6606 51.3515Z" fill="#FF9698"/>
</svg>
