<svg width="39" height="26" viewBox="0 0 39 26" fill="none" xmlns="http://www.w3.org/2000/svg">
<path fill-rule="evenodd" clip-rule="evenodd" d="M31.7548 13.709V21.8753C31.7548 23.6106 26.2589 25.0152 19.5054 25.0152C12.7519 25.0152 7.27642 23.5943 7.27642 21.8426V13.6763L18.4356 18.2372C18.7745 18.3787 19.1382 18.4515 19.5054 18.4515C19.8727 18.4515 20.2363 18.3787 20.5752 18.2372L31.7548 13.709ZM36.9731 17.539V10.3771L38.2634 9.8545C38.4222 9.79001 38.5582 9.6796 38.6539 9.5374C38.7496 9.3952 38.8008 9.22767 38.8008 9.05625C38.8008 8.88482 38.7496 8.71729 38.6539 8.57509C38.5582 8.43289 38.4222 8.32248 38.2634 8.25799L20.1546 0.924677C19.9492 0.837757 19.7285 0.792969 19.5054 0.792969C19.2824 0.792969 19.0616 0.837757 18.8562 0.924677L0.767902 8.27432C0.609069 8.33881 0.473086 8.44922 0.377347 8.59142C0.281609 8.73362 0.230469 8.90115 0.230469 9.07258C0.230469 9.244 0.281609 9.41153 0.377347 9.55373C0.473086 9.69593 0.609069 9.80634 0.767902 9.87083L18.8562 17.2205C19.0616 17.3074 19.2824 17.3522 19.5054 17.3522C19.7285 17.3522 19.9492 17.3074 20.1546 17.2205L35.838 10.8385V17.539C35.6382 17.6322 35.4664 17.7763 35.3399 17.9569C35.2133 18.1374 35.1365 18.3481 35.1171 18.5677C35.0976 18.7873 35.1363 19.0082 35.2291 19.2082C35.322 19.4082 35.4657 19.5802 35.6461 19.7071C35.4338 19.8347 35.2573 20.0139 35.1331 20.2281C35.0089 20.4423 34.9409 20.6845 34.9356 20.932V24.7579C34.9356 24.9745 35.0216 25.1822 35.1748 25.3354C35.3279 25.4885 35.5356 25.5746 35.7522 25.5746H37.0629C37.2795 25.5746 37.4872 25.4885 37.6404 25.3354C37.7935 25.1822 37.8795 24.9745 37.8795 24.7579V20.932C37.8712 20.6808 37.798 20.4359 37.6671 20.2213C37.5362 20.0066 37.3519 19.8295 37.1323 19.7071C37.3072 19.5795 37.4463 19.409 37.5362 19.2121C37.6262 19.0152 37.6639 18.7985 37.6459 18.5828C37.6278 18.367 37.5546 18.1596 37.4332 17.9804C37.3118 17.8011 37.1463 17.6562 36.9527 17.5594L36.9731 17.539Z" fill="white"/>
</svg>
