<svg width="96" height="95" viewBox="0 0 96 95" fill="none" xmlns="http://www.w3.org/2000/svg">
<rect x="0.976562" width="95" height="95" rx="47.5" fill="#FFE4A2"/>
<rect x="10.9766" y="10" width="75" height="75" rx="37.5" fill="#FFF2D3"/>
<path d="M57.4596 40.9854C56.3652 40.9854 55.4746 41.876 55.4746 42.9703V46.8408C55.4746 47.9351 56.3652 48.8257 57.4596 48.8257C58.5539 48.8257 59.4445 47.9351 59.4445 46.8408V42.9703C59.4445 41.876 58.5539 40.9854 57.4596 40.9854Z" fill="#F9C74F"/>
<path d="M44.6457 46.0874V40.4215C44.6457 39.3272 43.7551 38.4365 42.6607 38.4365C41.5664 38.4365 40.6758 39.3272 40.6758 40.4215V45.3294C40.8132 45.3389 40.9506 45.3531 41.0879 45.3815L44.641 46.0874H44.6457Z" fill="#F9C74F"/>
<path d="M54.9969 48.4558C54.471 49.2612 53.5614 49.7918 52.5287 49.7918C51.657 49.7918 50.8706 49.4128 50.3305 48.8064C50.3163 48.9153 50.2879 49.0243 50.2547 49.1285C49.7099 50.6729 48.2414 51.7199 46.6022 51.7246H46.3653C46.389 51.7388 46.4127 51.753 46.4364 51.7673C47.7676 52.5537 49.3594 54.1123 49.3594 57.0494C49.3594 57.3147 49.1415 57.5327 48.8762 57.5327C48.6109 57.5327 48.3929 57.3147 48.3929 57.0494C48.3929 55.0692 47.5781 53.5769 45.9721 52.6152C44.7357 51.8762 43.4661 51.7341 43.4566 51.7341C43.2008 51.7057 43.0113 51.4877 43.0255 51.2272C43.0397 50.9714 43.2481 50.7677 43.504 50.7677L46.5975 50.7582C47.8292 50.7582 48.933 49.9718 49.3452 48.8064C49.4115 48.6122 49.3925 48.4132 49.2931 48.2332C49.1936 48.0579 49.0278 47.9394 48.8288 47.8968L40.9031 46.324C39.9083 46.125 38.9182 46.6698 38.5486 47.6126L37.1795 51.1088C36.5542 52.7053 36.7532 54.5007 37.7149 55.9219L41.8743 62.0569C42.3575 62.7675 42.6133 63.6013 42.6133 64.4587V67.4291H56.2997V63.8713C56.2997 63.786 56.3233 63.7055 56.366 63.6297L57.683 61.3463C58.8342 59.3471 59.4453 57.0684 59.4453 54.7565V49.0148C58.9194 49.4933 58.223 49.7823 57.4603 49.7823C56.4276 49.7823 55.5227 49.2517 54.9921 48.4463L54.9969 48.4558Z" fill="#F9C74F"/>
<path d="M49.5528 47.1675C49.5718 47.0633 49.5813 46.9544 49.5813 46.8454V41.0895C49.5813 39.9951 48.6906 39.1045 47.5963 39.1045C46.502 39.1045 45.6113 39.9951 45.6113 41.0895V46.2864L49.0128 46.9638C49.207 47.0017 49.387 47.0728 49.5528 47.1723V47.1675Z" fill="#F9C74F"/>
<path d="M52.5279 48.8256C53.6223 48.8256 54.5129 47.935 54.5129 46.8407V42.1554C54.5129 41.061 53.6223 40.1704 52.5279 40.1704C51.4336 40.1704 50.543 41.061 50.543 42.1554V46.8407C50.543 47.935 51.4336 48.8256 52.5279 48.8256Z" fill="#F9C74F"/>
<path d="M48.1317 32.3442C48.3969 32.3442 48.6149 32.1263 48.6149 31.861V28.4832C48.6149 28.2179 48.3969 28 48.1317 28C47.8664 28 47.6484 28.2179 47.6484 28.4832V31.861C47.6484 32.1263 47.8664 32.3442 48.1317 32.3442Z" fill="#F9C74F"/>
<path d="M38.7752 35.5704C38.8747 35.5704 38.9741 35.5372 39.0641 35.4756C39.2773 35.3145 39.3247 35.0161 39.1636 34.7982L37.1502 32.0836C36.9892 31.8705 36.6907 31.8231 36.4728 31.9841C36.2596 32.1452 36.2122 32.4437 36.3733 32.6616L38.3867 35.3761C38.4814 35.504 38.6283 35.5704 38.7752 35.5704Z" fill="#F9C74F"/>
<path d="M32.8113 42.7522L29.6182 41.6484C29.3672 41.5631 29.0924 41.6958 29.0024 41.9468C28.9171 42.1979 29.0498 42.4727 29.3008 42.5627L32.4938 43.6665C32.546 43.6855 32.5981 43.6949 32.6502 43.6949C32.8492 43.6949 33.0386 43.5718 33.105 43.3681C33.1902 43.117 33.0576 42.8422 32.8065 42.7522H32.8113Z" fill="#F9C74F"/>
<path d="M68.4938 52.4546H65.116C64.8507 52.4546 64.6328 52.6725 64.6328 52.9378C64.6328 53.2031 64.8507 53.421 65.116 53.421H68.4938C68.7591 53.421 68.977 53.2031 68.977 52.9378C68.977 52.6725 68.7591 52.4546 68.4938 52.4546Z" fill="#F9C74F"/>
<path d="M59.7907 31.9841C59.5775 31.8231 59.2743 31.8705 59.1133 32.0836L57.0999 34.7982C56.9388 35.0113 56.9862 35.3145 57.1994 35.4756C57.2846 35.5419 57.3889 35.5704 57.4883 35.5704C57.6352 35.5704 57.7821 35.504 57.8768 35.3761L59.8902 32.6616C60.0513 32.4484 60.0039 32.1452 59.7907 31.9841Z" fill="#F9C74F"/>
<path d="M67.262 41.9468C67.1768 41.6958 66.902 41.5631 66.6462 41.6484L63.4532 42.7522C63.2021 42.8375 63.0695 43.1122 63.1547 43.3681C63.2258 43.567 63.4106 43.6949 63.6095 43.6949C63.6616 43.6949 63.7137 43.6855 63.7659 43.6665L66.9589 42.5627C67.2099 42.4774 67.3426 42.2027 67.2573 41.9468H67.262Z" fill="#F9C74F"/>
</svg>
