<svg width="44" height="41" viewBox="0 0 44 41" fill="none" xmlns="http://www.w3.org/2000/svg">
<path d="M25.7824 22.544C26.8912 22.6081 27.8473 21.7555 27.9163 20.6467L28.2859 14.5358C28.3204 13.9937 28.1381 13.4762 27.7783 13.0721C27.4186 12.668 26.9208 12.4265 26.3836 12.397C26.3442 12.397 26.3048 12.397 26.2703 12.397C25.2107 12.397 24.3187 13.2249 24.2547 14.2992L23.8851 20.4052V20.4249C23.8604 20.9621 24.0378 21.4746 24.3927 21.8738C24.7524 22.2779 25.2502 22.5194 25.7873 22.549L25.7824 22.544Z" fill="white"/>
<path d="M30.8566 22.3326C31.9654 22.3966 32.9215 21.5441 32.9904 20.4352L33.2566 15.9752C33.2911 15.4331 33.1087 14.9157 32.749 14.5116C32.3892 14.1075 31.8915 13.866 31.3543 13.8364C31.3149 13.8364 31.2754 13.8364 31.241 13.8364C30.1814 13.8364 29.2894 14.6644 29.2253 15.7387L28.9592 20.1987C28.9247 20.7408 29.1071 21.2582 29.4668 21.6623C29.8266 22.0664 30.3243 22.3079 30.8615 22.3375L30.8566 22.3326Z" fill="white"/>
<path d="M21.7747 19.637C22.2281 19.7602 22.6026 20.0165 22.8737 20.3566L23.1152 13.605C23.1349 13.0629 22.9427 12.5504 22.5731 12.1561C22.2035 11.7618 21.7057 11.5352 21.1636 11.5154C20.0499 11.476 19.1135 12.3532 19.0741 13.467L18.8868 18.7845C18.8868 18.7845 18.8868 18.8288 18.877 18.8535C19.5866 19.0457 20.316 19.2428 20.9714 19.4202C21.2573 19.4991 21.5283 19.573 21.7747 19.637Z" fill="white"/>
<path d="M16.5901 18.2566C16.9351 18.3403 17.3244 18.4389 17.7384 18.5522V14.4175C17.7384 13.3038 16.8316 12.397 15.7178 12.397C14.604 12.397 13.6973 13.3038 13.6973 14.4175V18.6804C14.5597 18.1777 15.5995 18.0151 16.595 18.2615L16.5901 18.2566Z" fill="white"/>
<path d="M30.9704 23.338C30.9113 23.338 30.857 23.338 30.7979 23.338C29.9897 23.2937 29.2455 22.9339 28.7084 22.3278C28.6344 22.244 28.5655 22.1553 28.5014 22.0666C27.9691 22.9635 26.9934 23.5549 25.8993 23.5549C25.8402 23.5549 25.786 23.5549 25.7268 23.5549C24.9186 23.5105 24.1745 23.1508 23.6373 22.5446C23.5141 22.4017 23.4007 22.2539 23.3071 22.0962V22.106C23.3071 22.106 23.2923 22.1553 23.2874 22.175C23.0607 23.1557 22.4841 23.9245 21.5773 24.4666C20.8184 24.92 19.8081 25.2157 18.5662 25.3487C19.0492 25.6494 19.611 26.0288 20.2024 26.4674C22.4398 28.1282 23.9379 29.8334 24.6476 31.5336C24.756 31.7898 24.6328 32.0855 24.3765 32.189C24.1203 32.2974 23.8246 32.1742 23.7211 31.918C22.1835 28.2416 16.6738 25.4029 16.6196 25.3783C16.4126 25.2748 16.3042 25.0383 16.3584 24.8116C16.4126 24.5849 16.6147 24.4272 16.8463 24.4272C18.7239 24.4272 20.1432 24.1463 21.0648 23.5992C21.735 23.2001 22.1441 22.658 22.3116 21.9434C22.4496 21.3569 22.0997 20.7705 21.5182 20.6128C21.2718 20.5487 21.0007 20.4748 20.7149 20.3959C19.3005 20.0115 17.5362 19.5286 16.3584 19.2378C15.3481 18.9865 14.2787 19.3019 13.5691 20.0608C12.0068 21.7167 11.2233 23.8949 10.7748 25.3882C10.3756 26.7089 10.4988 28.1085 11.1247 29.3405L15.9691 37.2552C15.9691 37.2552 15.9839 37.2749 15.9888 37.2897C16.2746 37.8416 16.4225 38.4626 16.4225 39.0835V40.562H30.3051V38.0732C30.3051 38.0289 30.31 37.9796 30.3248 37.9352L32.8924 28.9069C33.3458 27.3101 33.5774 25.6543 33.5774 23.9935L33.5035 21.9877C32.9564 22.8107 32.025 23.343 30.9852 23.343L30.9704 23.338Z" fill="white"/>
<path d="M22.0515 4.61092C22.3275 4.61092 22.5542 4.38422 22.5542 4.10824V0.594469C22.5542 0.318492 22.3275 0.0917969 22.0515 0.0917969C21.7755 0.0917969 21.5488 0.318492 21.5488 0.594469V4.10824C21.5488 4.38422 21.7755 4.61092 22.0515 4.61092Z" fill="white"/>
<path d="M4.38364 25.5312H0.869859C0.593883 25.5312 0.367188 25.7579 0.367188 26.0339C0.367188 26.3099 0.593883 26.5366 0.869859 26.5366H4.38364C4.65961 26.5366 4.88631 26.3099 4.88631 26.0339C4.88631 25.7579 4.65961 25.5312 4.38364 25.5312Z" fill="white"/>
<path d="M12.3191 7.96667C12.4226 7.96667 12.5261 7.93218 12.6197 7.86811C12.8415 7.70055 12.8908 7.39008 12.7232 7.16338L10.6288 4.33955C10.4612 4.11778 10.1507 4.0685 9.92402 4.23606C9.70226 4.40362 9.65298 4.71409 9.82053 4.94079L11.915 7.76462C12.0136 7.89768 12.1663 7.96667 12.3191 7.96667Z" fill="white"/>
<path d="M6.1141 15.4378L2.79253 14.2896C2.53133 14.2009 2.2455 14.3388 2.15187 14.6C2.06316 14.8612 2.20115 15.1471 2.46234 15.2407L5.78392 16.389C5.83813 16.4087 5.89234 16.4185 5.94655 16.4185C6.15353 16.4185 6.35066 16.2904 6.41965 16.0785C6.50836 15.8173 6.37037 15.5315 6.10918 15.4378H6.1141Z" fill="white"/>
<path d="M43.2332 25.5312H39.7195C39.4435 25.5312 39.2168 25.7579 39.2168 26.0339C39.2168 26.3099 39.4435 26.5366 39.7195 26.5366H43.2332C43.5092 26.5366 43.7359 26.3099 43.7359 26.0339C43.7359 25.7579 43.5092 25.5312 43.2332 25.5312Z" fill="white"/>
<path d="M34.1803 4.23606C33.9585 4.0685 33.6431 4.11778 33.4755 4.33955L31.3811 7.16338C31.2135 7.38515 31.2628 7.70055 31.4846 7.86811C31.5733 7.93711 31.6817 7.96667 31.7852 7.96667C31.938 7.96667 32.0907 7.89768 32.1893 7.76462L34.2838 4.94079C34.4513 4.71902 34.402 4.40362 34.1803 4.23606Z" fill="white"/>
<path d="M41.9519 14.6C41.8632 14.3388 41.5774 14.2009 41.3113 14.2896L37.9897 15.4378C37.7285 15.5265 37.5905 15.8124 37.6792 16.0785C37.7531 16.2855 37.9453 16.4185 38.1523 16.4185C38.2065 16.4185 38.2607 16.4087 38.3149 16.389L41.6365 15.2407C41.8977 15.152 42.0357 14.8662 41.947 14.6H41.9519Z" fill="white"/>
</svg>
