<svg width="96" height="95" viewBox="0 0 96 95" fill="none" xmlns="http://www.w3.org/2000/svg">
<rect x="0.160156" width="95" height="95" rx="47.5" fill="#E4FFF0" fill-opacity="0.76"/>
<rect x="10.1602" y="10" width="75" height="75" rx="37.5" fill="#C9FADF"/>
<path d="M60.5111 35.95C58.7701 34.05 56.4391 33 53.9681 33C51.8271 33 49.7961 33.78 48.1651 35.23C46.5351 33.78 44.5041 33 42.3631 33C39.8921 33 37.5601 34.05 35.8201 35.95C33.1281 38.9 32.4381 43.31 33.9391 47H40.6221L44.3341 41.45C44.5541 41.12 44.9341 40.95 45.3241 41.01C45.7141 41.08 46.0241 41.36 46.1241 41.74L48.5552 50.62L51.3361 46.45C51.5161 46.17 51.8361 46 52.1661 46H57.1681C57.7181 46 58.1681 46.45 58.1681 47C58.1681 47.55 57.7181 48 57.1681 48H52.7061L48.9941 53.55C48.8041 53.84 48.4941 54 48.1641 54C48.1141 54 48.0541 54 48.0041 53.99C47.6141 53.92 47.3041 53.64 47.2041 53.26L44.7731 44.38L41.9921 48.55C41.8121 48.83 41.4921 49 41.1621 49H35.1191L47.4251 62.67C47.6151 62.88 47.8751 63 48.1651 63C48.4451 63 48.7152 62.88 48.9052 62.67L60.5101 49.99C64.0431 46.12 64.0431 39.82 60.5111 35.95Z" fill="#00A650"/>
</svg>
