<svg width="34" height="34" viewBox="0 0 34 34" fill="none" xmlns="http://www.w3.org/2000/svg">
<path d="M24.0946 29.7429L9.92798 29.7564C6.81131 29.7592 4.25919 27.212 4.25565 24.0954L4.24219 9.92871C4.23936 6.81205 6.78652 4.25992 9.90319 4.25638L24.0699 4.24292C27.1865 4.24009 29.7386 6.78726 29.7422 9.90392L29.7556 24.0706C29.7592 27.188 27.2113 29.7401 24.0946 29.7429Z" fill="url(#paint0_radial_3016_52)"/>
<path d="M24.0946 29.7429L9.92798 29.7564C6.81131 29.7592 4.25919 27.212 4.25565 24.0954L4.24219 9.92871C4.23936 6.81205 6.78652 4.25992 9.90319 4.25638L24.0699 4.24292C27.1865 4.24009 29.7386 6.78726 29.7422 9.90392L29.7556 24.0706C29.7592 27.188 27.2113 29.7401 24.0946 29.7429Z" fill="url(#paint1_radial_3016_52)"/>
<path d="M16.9993 21.9584C14.2659 21.9584 12.041 19.7342 12.041 17.0001C12.041 14.2659 14.2659 12.0417 16.9993 12.0417C19.7328 12.0417 21.9577 14.2659 21.9577 17.0001C21.9577 19.7342 19.7328 21.9584 16.9993 21.9584ZM16.9993 13.4584C15.0465 13.4584 13.4577 15.0472 13.4577 17.0001C13.4577 18.953 15.0465 20.5417 16.9993 20.5417C18.9522 20.5417 20.541 18.953 20.541 17.0001C20.541 15.0472 18.9522 13.4584 16.9993 13.4584Z" fill="white"/>
<path d="M22.3125 12.75C22.8993 12.75 23.375 12.2743 23.375 11.6875C23.375 11.1007 22.8993 10.625 22.3125 10.625C21.7257 10.625 21.25 11.1007 21.25 11.6875C21.25 12.2743 21.7257 12.75 22.3125 12.75Z" fill="white"/>
<path d="M21.2493 26.2084H12.7493C10.0159 26.2084 7.79102 23.9842 7.79102 21.2501V12.7501C7.79102 10.0159 10.0159 7.79175 12.7493 7.79175H21.2493C23.9828 7.79175 26.2077 10.0159 26.2077 12.7501V21.2501C26.2077 23.9842 23.9828 26.2084 21.2493 26.2084ZM12.7493 9.20841C10.7965 9.20841 9.20768 10.7972 9.20768 12.7501V21.2501C9.20768 23.203 10.7965 24.7917 12.7493 24.7917H21.2493C23.2022 24.7917 24.791 23.203 24.791 21.2501V12.7501C24.791 10.7972 23.2022 9.20841 21.2493 9.20841H12.7493Z" fill="white"/>
<defs>
<radialGradient id="paint0_radial_3016_52" cx="0" cy="0" r="1" gradientUnits="userSpaceOnUse" gradientTransform="translate(13.7268 29.7748) scale(31.8035)">
<stop stop-color="#FFDD55"/>
<stop offset="0.328" stop-color="#FF543F"/>
<stop offset="0.348" stop-color="#FC5245"/>
<stop offset="0.504" stop-color="#E64771"/>
<stop offset="0.643" stop-color="#D53E91"/>
<stop offset="0.761" stop-color="#CC39A4"/>
<stop offset="0.841" stop-color="#C837AB"/>
</radialGradient>
<radialGradient id="paint1_radial_3016_52" cx="0" cy="0" r="1" gradientUnits="userSpaceOnUse" gradientTransform="translate(8.34769 3.92439) scale(21.1175 14.0706)">
<stop stop-color="#4168C9"/>
<stop offset="0.999" stop-color="#4168C9" stop-opacity="0"/>
</radialGradient>
</defs>
</svg>
