<svg width="37" height="36" viewBox="0 0 37 36" fill="none" xmlns="http://www.w3.org/2000/svg">
<path d="M15.0821 2.40723C12.8078 2.40723 10.9642 4.25091 10.9642 6.5252C10.9642 7.57749 10.1111 8.43053 9.05882 8.43053H8.60322C6.27838 8.43053 4.20747 10.2293 4.3336 12.7277C4.48336 15.6941 5.14222 20.3176 7.54537 24.6971C8.21845 25.9237 9.11736 27.1286 10.0891 28.2514L10.1623 28.3359C11.5602 29.9511 12.7257 31.2979 13.9788 32.2159C15.3265 33.2032 16.765 33.6951 18.6772 33.6951C20.5893 33.6951 22.0278 33.2032 23.3756 32.2159C24.6287 31.2979 25.7942 29.9511 27.1921 28.3359L27.2653 28.2514C28.237 27.1286 29.1359 25.9237 29.809 24.6971C32.2921 20.172 32.9112 15.0586 33.0333 11.8709C33.1286 9.38441 31.0724 7.57006 28.7347 7.57006H27.8653C27.0506 7.57006 26.3902 6.90964 26.3902 6.09497C26.3902 4.05828 24.7392 2.40723 22.7025 2.40723H15.0821Z" fill="white"/>
</svg>
