<svg width="96" height="95" viewBox="0 0 96 95" fill="none" xmlns="http://www.w3.org/2000/svg">
<rect x="0.609375" width="95" height="95" rx="47.5" fill="#E4ECFF"/>
<rect x="10.6094" y="10" width="75" height="75" rx="37.5" fill="#D4E1FF"/>
<path d="M48.6094 32.9818C43.8703 28.8566 36.6511 29.0408 32.1453 33.5466C29.8617 35.8302 28.6094 38.8627 28.6094 42.0794C28.6094 45.2961 29.8617 48.3409 32.1453 50.6123L47.6886 66.1556C47.9464 66.4134 48.2779 66.5362 48.6094 66.5362C48.9409 66.5362 49.2846 66.4134 49.5302 66.1556L65.0735 50.6123C67.3571 48.3287 68.6094 45.3084 68.6094 42.0794C68.6094 38.8505 67.3571 35.8179 65.0735 33.5343C60.5676 29.0162 53.3362 28.832 48.6094 32.9695V32.9818Z" fill="#ABC4FF"/>
</svg>
