<svg width="30" height="31" viewBox="0 0 30 31" fill="none" xmlns="http://www.w3.org/2000/svg">
<path d="M0 30.2958L2.10875 22.5921C0.807498 20.3371 0.12375 17.7809 0.125 15.1596C0.12875 6.96463 6.79749 0.295898 14.9912 0.295898C18.9675 0.297148 22.7 1.8459 25.5074 4.65589C28.3137 7.46588 29.8587 11.2009 29.8574 15.1734C29.8537 23.3696 23.1849 30.0383 14.9912 30.0383C12.5037 30.0371 10.0525 29.4133 7.88123 28.2283L0 30.2958ZM8.24623 25.5371C10.3412 26.7808 12.3412 27.5258 14.9862 27.5271C21.7962 27.5271 27.3437 21.9846 27.3474 15.1709C27.3499 8.34338 21.8287 2.80839 14.9962 2.80589C8.18123 2.80589 2.63749 8.34838 2.63499 15.1609C2.63374 17.9421 3.44874 20.0246 4.81749 22.2034L3.56874 26.7633L8.24623 25.5371ZM22.48 18.7071C22.3875 18.5521 22.14 18.4596 21.7675 18.2734C21.3962 18.0871 19.57 17.1884 19.2287 17.0646C18.8887 16.9409 18.6412 16.8784 18.3925 17.2509C18.145 17.6221 17.4325 18.4596 17.2162 18.7071C17 18.9546 16.7825 18.9859 16.4112 18.7996C16.04 18.6134 14.8425 18.2221 13.4237 16.9559C12.32 15.9709 11.5737 14.7546 11.3575 14.3821C11.1412 14.0109 11.335 13.8096 11.52 13.6246C11.6875 13.4584 11.8912 13.1909 12.0775 12.9734C12.2662 12.7584 12.3275 12.6034 12.4525 12.3546C12.5762 12.1071 12.515 11.8896 12.4212 11.7034C12.3275 11.5184 11.585 9.68963 11.2762 8.94588C10.9737 8.22213 10.6675 8.31963 10.44 8.30838L9.72748 8.29588C9.47998 8.29588 9.07748 8.38838 8.73748 8.76088C8.39748 9.13338 7.43748 10.0309 7.43748 11.8596C7.43748 13.6884 8.76873 15.4546 8.95373 15.7021C9.13998 15.9496 11.5725 19.7021 15.2987 21.3109C16.185 21.6934 16.8775 21.9221 17.4162 22.0933C18.3062 22.3758 19.1162 22.3358 19.7562 22.2409C20.47 22.1346 21.9537 21.3421 22.2637 20.4746C22.5737 19.6059 22.5737 18.8621 22.48 18.7071Z" fill="#25D366"/>
</svg>
